<svg xmlns="http://www.w3.org/2000/svg" xmlns:xlink="http://www.w3.org/1999/xlink" contentStyleType="text/css" data-diagram-type="STATE" height="940px" preserveAspectRatio="none" style="width:1245px;height:940px;background:#F8FAFC;" version="1.1" viewBox="0 0 1245 940" width="1245px" zoomAndPan="magnify"><?plantuml 1.2026.5?><defs/><g><rect fill="#F8FAFC" height="940" style="stroke:none;stroke-width:1;" width="1245" x="0" y="0"/><g class="title" data-source-line="1"><text fill="#000000" font-family="sans-serif" font-size="14" font-weight="700" lengthAdjust="spacing" textLength="343.3906" x="376.8047" y="24.9659">Formally constrained immutable release lifecycle</text></g><g class="entity" data-qualified-name="Input" data-source-line="11" id="ent0001"><rect fill="#FEF3C7" height="58.1358" rx="12.5" ry="12.5" style="stroke:#334155;stroke-width:0.5;" width="166.1174" x="925.5565" y="113.0679"/><line style="stroke:#334155;stroke-width:0.5;" x1="925.5565" x2="1091.6739" y1="161.2038" y2="161.2038"/><text fill="#0F172A" font-family="sans-serif" font-size="14" lengthAdjust="spacing" textLength="104.8596" x="935.5565" y="133.0339">Untrusted input</text><text fill="#0F172A" font-family="sans-serif" font-size="14" lengthAdjust="spacing" textLength="146.1174" x="935.5565" y="152.1018">workflow-dispatch tag</text></g><g class="entity" data-qualified-name="Trusted" data-source-line="12" id="ent0002"><rect fill="#DBEAFE" height="58.1358" rx="12.5" ry="12.5" style="stroke:#334155;stroke-width:0.5;" width="205.4713" x="816.0565" y="228.0679"/><line style="stroke:#334155;stroke-width:0.5;" x1="816.0565" x2="1021.5278" y1="276.2038" y2="276.2038"/><text fill="#0F172A" font-family="sans-serif" font-size="14" lengthAdjust="spacing" textLength="118.9855" x="826.0565" y="248.0339">Trusted candidate</text><text fill="#0F172A" font-family="sans-serif" font-size="14" lengthAdjust="spacing" textLength="185.4713" x="826.0565" y="267.1018">signed tag = protected main</text></g><g class="entity" data-qualified-name="Gated" data-source-line="13" id="ent0003"><rect fill="#EDE9FE" height="58.1358" rx="12.5" ry="12.5" style="stroke:#334155;stroke-width:0.5;" width="245.3291" x="678.0565" y="343.0679"/><line style="stroke:#334155;stroke-width:0.5;" x1="678.0565" x2="923.3856" y1="391.2038" y2="391.2038"/><text fill="#0F172A" font-family="sans-serif" font-size="14" lengthAdjust="spacing" textLength="102.6896" x="688.0565" y="363.0339">Gates complete</text><text fill="#0F172A" font-family="sans-serif" font-size="14" lengthAdjust="spacing" textLength="225.3291" x="688.0565" y="382.1018">proofs + tests + adversarial checks</text></g><g class="entity" data-qualified-name="Draft" data-source-line="14" id="ent0004"><rect fill="#E0F2FE" height="58.1358" rx="12.5" ry="12.5" style="stroke:#334155;stroke-width:0.5;" width="146.7975" x="514.0565" y="458.0679"/><line style="stroke:#334155;stroke-width:0.5;" x1="514.0565" x2="660.854" y1="506.2038" y2="506.2038"/><text fill="#0F172A" font-family="sans-serif" font-size="14" lengthAdjust="spacing" textLength="85.0077" x="524.0565" y="478.0339">Draft release</text><text fill="#0F172A" font-family="sans-serif" font-size="14" lengthAdjust="spacing" textLength="126.7975" x="524.0565" y="497.1018">compatible identity</text></g><g class="entity" data-qualified-name="Registry" data-source-line="15" id="ent0005"><rect fill="#D1FAE5" height="58.1358" rx="12.5" ry="12.5" style="stroke:#334155;stroke-width:0.5;" width="172.0954" x="328.5565" y="591.0679"/><line style="stroke:#334155;stroke-width:0.5;" x1="328.5565" x2="500.6519" y1="639.2038" y2="639.2038"/><text fill="#0F172A" font-family="sans-serif" font-size="14" lengthAdjust="spacing" textLength="106.4836" x="338.5565" y="611.0339">Registry verified</text><text fill="#0F172A" font-family="sans-serif" font-size="14" lengthAdjust="spacing" textLength="152.0954" x="338.5565" y="630.1018">crate SHA-256 matches</text></g><g class="entity" data-qualified-name="Assets" data-source-line="16" id="ent0006"><rect fill="#CCFBF1" height="58.1358" rx="12.5" ry="12.5" style="stroke:#334155;stroke-width:0.5;" width="277.375" x="60.0565" y="706.0679"/><line style="stroke:#334155;stroke-width:0.5;" x1="60.0565" x2="337.4315" y1="754.2038" y2="754.2038"/><text fill="#0F172A" font-family="sans-serif" font-size="14" lengthAdjust="spacing" textLength="107.0016" x="70.0565" y="726.0339">Assets complete</text><text fill="#0F172A" font-family="sans-serif" font-size="14" lengthAdjust="spacing" textLength="257.375" x="70.0565" y="745.1018">package + SBOM + evidence + manifest</text></g><g class="entity" data-qualified-name="Published" data-source-line="17" id="ent0007"><rect fill="#A7F3D0" height="50" rx="12.5" ry="12.5" style="stroke:#334155;stroke-width:0.5;" width="212.4853" x="9.5565" y="825.0679"/><line style="stroke:#334155;stroke-width:0.5;" x1="9.5565" x2="222.0417" y1="854.1358" y2="854.1358"/><text fill="#0F172A" font-family="sans-serif" font-size="14" lengthAdjust="spacing" textLength="192.4853" x="19.5565" y="845.0339">Immutable published release</text></g><g class="entity" data-qualified-name="Rejected" data-source-line="18" id="ent0008"><rect fill="#FEE2E2" height="58.1358" rx="12.5" ry="12.5" style="stroke:#334155;stroke-width:0.5;" width="181.3074" x="535.0565" y="821.0679"/><line style="stroke:#334155;stroke-width:0.5;" x1="535.0565" x2="716.3639" y1="869.2038" y2="869.2038"/><text fill="#0F172A" font-family="sans-serif" font-size="14" lengthAdjust="spacing" textLength="56.3918" x="545.0565" y="841.0339">Rejected</text><text fill="#0F172A" font-family="sans-serif" font-size="14" lengthAdjust="spacing" textLength="161.3074" x="545.0565" y="860.1018">no publication transition</text></g><g class="start_entity" data-qualified-name=".start." data-source-line="20" id="ent0009"><ellipse cx="1008.5565" cy="62.0679" fill="#222222" rx="10" ry="10" style="stroke:#222222;stroke-width:1;"/></g><g class="end_entity" data-qualified-name=".end." data-source-line="34" id="ent0024"><ellipse cx="430.5565" cy="927.0679" fill="none" rx="11" ry="11" style="stroke:#222222;stroke-width:1;"/><ellipse cx="430.5565" cy="927.0679" fill="#222222" rx="6" ry="6" style="stroke:#222222;stroke-width:1;"/></g><g class="link" data-entity-1="ent0009" data-entity-2="ent0001" data-link-type="dependency" id="lnk10"><polygon fill="#334155" points="1008.5565,113.055,1012.5565,104.055,1008.5565,108.055,1004.5565,104.055,1008.5565,113.055" style="stroke:#334155;stroke-width:1;stroke-linejoin:miter;stroke-miterlimit:10;"/><path d="M1008.5565,76.282 C1008.5565,85.9439 1008.5565,95.3066 1008.5565,108.055" fill="none" style="stroke:#334155;stroke-width:1;"/></g><g class="link" data-entity-1="ent0001" data-entity-2="ent0002" data-link-type="dependency" id="lnk11"><polygon fill="#334155" points="912.7236,227.8339,915.914,218.5161,912.2825,222.8534,907.9452,219.2219,912.7236,227.8339" style="stroke:#334155;stroke-width:1;stroke-linejoin:miter;stroke-miterlimit:10;"/><path d="M936.0589,171.0876 C929.5825,176.1684 923.8596,182.1173 919.5565,189.0679 C912.5144,200.4427 911.1563,210.1379 912.2825,222.8534" fill="none" style="stroke:#334155;stroke-width:1;"/><text fill="#000000" font-family="sans-serif" font-size="13" lengthAdjust="spacing" textLength="161.9411" x="921.5565" y="204.9649">protected signer and head</text></g><g class="link" data-entity-1="ent0001" data-entity-2="ent0008" data-link-type="dependency" id="lnk12"><polygon fill="#334155" points="716.196,845.7437,725.4018,849.2442,721.1885,845.4696,724.9631,841.2563,716.196,845.7437" style="stroke:#334155;stroke-width:1;stroke-linejoin:miter;stroke-miterlimit:10;"/><path d="M1066.847,171.0963 C1073.5783,176.2955 1079.7428,182.2715 1084.5565,189.0679 C1102.1392,213.8929 1098.5565,225.647 1098.5565,256.0679 C1098.5565,256.0679 1098.5565,256.0679 1098.5565,736.0679 C1098.5565,813.8481 858.532,837.9279 721.1885,845.4696" fill="none" style="stroke:#334155;stroke-width:1;"/><text fill="#000000" font-family="sans-serif" font-size="13" lengthAdjust="spacing" textLength="144.1051" x="1100.5565" y="492.4649">identity or policy failure</text></g><g class="link" data-entity-1="ent0002" data-entity-2="ent0003" data-link-type="dependency" id="lnk13"><polygon fill="#334155" points="794.2347,342.8254,797.3204,333.4724,793.7377,337.8502,789.36,334.2675,794.2347,342.8254" style="stroke:#334155;stroke-width:1;stroke-linejoin:miter;stroke-miterlimit:10;"/><path d="M819.3198,286.1046 C812.4862,291.1356 806.4018,297.0694 801.5565,304.0679 C793.8751,315.1629 792.4527,324.9844 793.7377,337.8502" fill="none" style="stroke:#334155;stroke-width:1;"/><text fill="#000000" font-family="sans-serif" font-size="13" lengthAdjust="spacing" textLength="180.7131" x="803.5565" y="319.9649">every acceptance gate passes</text></g><g class="link" data-entity-1="ent0002" data-entity-2="ent0008" data-link-type="dependency" id="lnk14"><polygon fill="#334155" points="716.0915,839.8776,725.5172,842.7332,721.053,839.2589,724.5273,834.7947,716.0915,839.8776" style="stroke:#334155;stroke-width:1;stroke-linejoin:miter;stroke-miterlimit:10;"/><path d="M968.989,286.1078 C975.3037,291.3809 981.0982,297.3742 985.5565,304.0679 C1002.4199,329.387 999.5565,340.647 999.5565,371.0679 C999.5565,371.0679 999.5565,371.0679 999.5565,736.0679 C999.5565,795.0796 831.7394,825.4568 721.053,839.2589" fill="none" style="stroke:#334155;stroke-width:1;"/><text fill="#000000" font-family="sans-serif" font-size="13" lengthAdjust="spacing" textLength="80.7301" x="1001.5565" y="558.9649">any gate fails</text></g><g class="link" data-entity-1="ent0003" data-entity-2="ent0004" data-link-type="dependency" id="lnk15"><polygon fill="#334155" points="580.5343,457.9098,583.4429,448.5002,579.9435,452.9448,575.4989,449.4454,580.5343,457.9098" style="stroke:#334155;stroke-width:1;stroke-linejoin:miter;stroke-miterlimit:10;"/><path d="M677.9262,386.4849 C638.0976,393.5313 600.9326,403.9507 588.5565,419.0679 C579.8607,429.6896 578.3781,439.7895 579.9435,452.9448" fill="none" style="stroke:#334155;stroke-width:1;"/><text fill="#000000" font-family="sans-serif" font-size="13" lengthAdjust="spacing" textLength="197.4052" x="590.5565" y="434.9649">create or reuse compatible draft</text></g><g class="link" data-entity-1="ent0003" data-entity-2="ent0008" data-link-type="dependency" id="lnk16"><polygon fill="#334155" points="716.1209,827.1215,725.9538,827.6821,720.7981,825.3542,723.1261,820.1985,716.1209,827.1215" style="stroke:#334155;stroke-width:1;stroke-linejoin:miter;stroke-miterlimit:10;"/><path d="M801.725,401.3903 C802.5673,424.2423 803.5565,457.2192 803.5565,486.0679 C803.5565,486.0679 803.5565,486.0679 803.5565,736.0679 C803.5565,782.3719 764.7706,808.739 720.7981,825.3542" fill="none" style="stroke:#334155;stroke-width:1;"/><text fill="#000000" font-family="sans-serif" font-size="13" lengthAdjust="spacing" textLength="164.5282" x="805.5565" y="625.4649">incompatible existing state</text></g><g class="link" data-entity-1="ent0004" data-entity-2="ent0005" data-link-type="dependency" id="lnk17"><polygon fill="#334155" points="409.2658,590.7736,412.3993,581.4365,408.7943,585.7959,404.435,582.1909,409.2658,590.7736" style="stroke:#334155;stroke-width:1;stroke-linejoin:miter;stroke-miterlimit:10;"/><path d="M513.7083,500.009 C475.259,507.8227 433.759,519.3227 421.5565,534.0679 C408.7178,549.5819 407.0732,567.6238 408.7943,585.7959" fill="none" style="stroke:#334155;stroke-width:1;"/><text fill="#000000" font-family="sans-serif" font-size="13" lengthAdjust="spacing" textLength="172.4322" x="429.5495" y="549.9649">absent crate published once</text><text fill="#000000" font-family="sans-serif" font-size="13" lengthAdjust="spacing" textLength="184.4182" x="423.5565" y="567.6709">or existing checksum matches</text></g><g class="link" data-entity-1="ent0004" data-entity-2="ent0008" data-link-type="dependency" id="lnk18"><polygon fill="#334155" points="625.5383,820.587,629.5016,811.5708,625.518,815.587,621.5017,811.6033,625.5383,820.587" style="stroke:#334155;stroke-width:1;stroke-linejoin:miter;stroke-miterlimit:10;"/><path d="M603.1084,516.1185 C605.6975,521.9004 608.0328,528.0614 609.5565,534.0679 C623.1887,587.8083 625.2453,748.6271 625.518,815.587" fill="none" style="stroke:#334155;stroke-width:1;"/><text fill="#000000" font-family="sans-serif" font-size="13" lengthAdjust="spacing" textLength="161.7981" x="625.5565" y="682.9649">registry mismatch or error</text></g><g class="link" data-entity-1="ent0005" data-entity-2="ent0006" data-link-type="dependency" id="lnk19"><polygon fill="#334155" points="191.5209,705.8988,194.4275,696.4886,190.9291,700.9339,186.4837,697.4355,191.5209,705.8988" style="stroke:#334155;stroke-width:1;stroke-linejoin:miter;stroke-miterlimit:10;"/><path d="M328.5558,628.6186 C276.1165,635.1927 216.0886,646.9337 199.5565,667.0679 C190.8454,677.677 189.3605,687.7761 190.9291,700.9339" fill="none" style="stroke:#334155;stroke-width:1;"/><text fill="#000000" font-family="sans-serif" font-size="13" lengthAdjust="spacing" textLength="197.3271" x="201.5565" y="682.9649">attest and reconcile exact assets</text></g><g class="link" data-entity-1="ent0005" data-entity-2="ent0008" data-link-type="dependency" id="lnk20"><polygon fill="#334155" points="534.8322,831.5241,527.4545,824.9996,530.0643,830.0185,525.0455,832.6283,534.8322,831.5241" style="stroke:#334155;stroke-width:1;stroke-linejoin:miter;stroke-miterlimit:10;"/><path d="M409.4787,649.2618 C405.5043,680.4233 404.1432,730.6212 428.5565,764.0679 C453.7567,798.5926 491.1788,817.7391 530.0643,830.0185" fill="none" style="stroke:#334155;stroke-width:1;"/><text fill="#000000" font-family="sans-serif" font-size="13" lengthAdjust="spacing" textLength="179.8032" x="430.5565" y="740.4649">incomplete or unequal assets</text></g><g class="link" data-entity-1="ent0006" data-entity-2="ent0007" data-link-type="dependency" id="lnk21"><polygon fill="#334155" points="34.8495,825.0058,28.504,817.4735,30.3527,822.8198,25.0064,824.6684,34.8495,825.0058" style="stroke:#334155;stroke-width:1;stroke-linejoin:miter;stroke-miterlimit:10;"/><path d="M60.0423,758.2563 C37.525,764.5963 19.0846,772.4636 11.5565,782.0679 C-2.2895,799.7327 8.0011,811.954 30.3527,822.8198" fill="none" style="stroke:#334155;stroke-width:1;"/><text fill="#000000" font-family="sans-serif" font-size="13" lengthAdjust="spacing" textLength="181.9352" x="13.5565" y="797.9649">one final draft=false mutation</text></g><g class="link" data-entity-1="ent0006" data-entity-2="ent0008" data-link-type="dependency" id="lnk22"><polygon fill="#334155" points="535.0371,835.7031,526.682,830.4884,530.0858,835.0066,525.5677,838.4105,535.0371,835.7031" style="stroke:#334155;stroke-width:1;stroke-linejoin:miter;stroke-miterlimit:10;"/><path d="M200.2736,764.2547 C202.6614,778.0865 207.9737,793.7402 219.5565,803.0679 C254.6567,831.3343 376.7753,816.0024 421.5565,821.0679 C458.766,825.2769 494.7288,830.033 530.0858,835.0066" fill="none" style="stroke:#334155;stroke-width:1;"/><text fill="#000000" font-family="sans-serif" font-size="13" lengthAdjust="spacing" textLength="177.8012" x="221.5565" y="797.9649">publication precondition fails</text></g><g class="link" data-entity-1="ent0007" data-entity-2="ent0007" data-link-type="dependency" id="lnk23"><polygon fill="#334155" points="221.8293,857.1579,231.2688,859.9678,226.7878,856.5152,230.2405,852.0342,221.8293,857.1579" style="stroke:#334155;stroke-width:1;stroke-linejoin:miter;stroke-miterlimit:10;"/><path d="M221.8293,842.978 C232.6491,844.3804 239.5565,846.7437 239.5565,850.0679 C239.5565,853.3921 237.6076,855.1127 226.7878,856.5152" fill="none" style="stroke:#334155;stroke-width:1;"/><text fill="#000000" font-family="sans-serif" font-size="13" lengthAdjust="spacing" textLength="169.1822" x="241.5565" y="855.4649">retry validates; no mutation</text></g><g class="link" data-entity-1="ent0008" data-entity-2="ent0024" data-link-type="dependency" id="lnk25"><polygon fill="#334155" points="441.6202,922.7559,451.4584,923.2146,446.2789,920.9402,448.5533,915.7607,441.6202,922.7559" style="stroke:#334155;stroke-width:1;stroke-linejoin:miter;stroke-miterlimit:10;"/><path d="M553.4997,879.1516 C511.6216,895.4733 467.6687,912.6037 446.2789,920.9402" fill="none" style="stroke:#334155;stroke-width:1;"/></g><g class="link" data-entity-1="ent0007" data-entity-2="ent0024" data-link-type="dependency" id="lnk26"><polygon fill="#334155" points="419.5302,924.4076,411.7194,918.4083,414.6696,923.2349,409.8431,926.1852,419.5302,924.4076" style="stroke:#334155;stroke-width:1;stroke-linejoin:miter;stroke-miterlimit:10;"/><path d="M215.2245,875.1148 C290.9271,893.3796 382.4692,915.4659 414.6696,923.2349" fill="none" style="stroke:#334155;stroke-width:1;"/></g><?plantuml-src PLHDZzCm4BtdLvZj3LHfsr8AHOkKjWdi0O5OE54EKsUQcYPsi9qj5UA_C-DyD5qk_PZCU-CtxpdFAWjv2QA0iwczS2Lwq11vvGiKgR4b5CLPIAETjw0qPaALPUrXHuyj5WWEHQ7sAC-omCWTbQx0GYbs88-vDRNErgOmLepIrscShWSTxW2PEIcTYpqKReXr7ZoAFv4GgwSioMqwJHD-Oco6jgtEPYydypbLKwDzMxjD9ujfJBNOMdEwRlmRHSsCcs_QszfvbgMhsc_roTZZlZ2dSQPS1LuUX8VyHe0Jzzn0Ef9qjbvq-AyjMeBEL4QbhNOgvpKHJDo9oXgFaZjAsbxWwI2ZpIg9IKlBz9u-7Iswh0fa6aAQlHCl19KzVqFsYDQ1LL08UK1vT86ESKIMR98t5xADXRtl_DbgPWMls3ELeIPppm7Rj7LBRR5VC5TazbdGEBLNc17UyfE73_5uEdz5IcWjs4plcqURIHedyuuaTWxzbHno4d8a7G-hJn_f2n_vA98h9MXAaFE1iKMErkjqbKuwlli-T5MzAvGxaEPMNa1zxgkZU97EDhSNDJ_3_hTQcmOhQHD62uepMSK_Mo5D7nkSJ9Df57r__aECn-yQtwF6VVxV-RSSc1iyju9280u8sQ2xvrtsgnUKnChGGSwKV5NK5gEEan6DeKjQ4D9UGKgiw4hIed8ML07jnrq11YD0dvis9dPHGyKzZTDB8ItoOpg1nPgkxY0P6RSC8CEJ3nE4lybnlhPXmr73t03QBD0vTewqYYOt5ySCoTXg6jvpD46koovKLtJzVDinbyg5HXQ0TAzjr0zbI9iTck_vrWG_BDBBIwfmS91K2ptNkF-aScPvHgtnLqtthGMr_0ov16v9icZXIbDVsE5TU9y93Yp7QuWQ31fciGg7p48QM-ik_4-dMGoN4uhmld5l1GMxdzKFO1Gb-0aFLVu1?></g></svg>